<svg xmlns="http://www.w3.org/2000/svg" viewBox="0 0 400 600">
<defs>
<linearGradient id="g" x1="0" y1="0" x2="1" y2="1">
<stop offset="0" stop-color="#354439"/><stop offset="0.55" stop-color="#1b2a1f"/><stop offset="1" stop-color="#132217"/></linearGradient>
<pattern id="tex" width="6" height="6" patternUnits="userSpaceOnUse">
<rect width="6" height="6" fill="none"/><circle cx="1" cy="1" r="0.55" fill="#ffffff" fill-opacity="0.035"/></pattern>
</defs>
<rect width="400" height="600" fill="url(#g)"/>
<rect width="400" height="600" fill="url(#tex)"/>
<g stroke="#a3d977" fill="none" transform="rotate(0 200 300)">
<circle cx="200" cy="300" r="140" stroke-opacity="0.12" stroke-width="2"/>
<circle cx="200" cy="300" r="120" stroke-opacity="0.08" stroke-width="1" stroke-dasharray="4 6"/>
<path d="M200 180 L215 300 L200 420 L185 300 Z" stroke-opacity="0.18" fill="#a3d977" fill-opacity="0.08"/>
<path d="M80 300 L200 315 L320 300 L200 285 Z" stroke-opacity="0.14"/></g>
<ellipse cx="200" cy="250" rx="230" ry="200" fill="#a3d977" fill-opacity="0.07"/>
<rect x="16" y="16" width="368" height="568" fill="none" stroke="#a3d977" stroke-opacity="0.5" stroke-width="1.5"/>
<rect x="22" y="22" width="356" height="556" fill="none" stroke="#a3d977" stroke-opacity="0.18" stroke-width="0.75"/>
<text x="200" y="58" text-anchor="middle" font-family="Georgia,serif" font-size="11" letter-spacing="2.2" fill="#a3d977">THE HR MASTERY SERIES</text>
<path d="M120 74 L192 74 M208 74 L280 74" stroke="#a3d977" stroke-width="1" stroke-opacity="0.6"/>
<circle cx="200" cy="74" r="2.2" fill="#a3d977" fill-opacity="0.8"/>
<text x="200" y="228" text-anchor="middle" font-family="Georgia,serif" font-weight="bold" font-size="26" fill="#f5f0e6" style="text-shadow:0 2px 8px rgba(0,0,0,.4)">THE HR LEADER&#x27;S</text>
<text x="200" y="264" text-anchor="middle" font-family="Georgia,serif" font-weight="bold" font-size="26" fill="#f5f0e6" style="text-shadow:0 2px 8px rgba(0,0,0,.4)">FIELD MANUAL</text>
<text x="200" y="330" text-anchor="middle" font-family="Georgia,serif" font-style="italic" font-size="13.5" fill="#a3d977">Volume 1: People &amp; Teams</text>
<text x="200" y="350" text-anchor="middle" font-family="Georgia,serif" font-style="italic" font-size="13.5" fill="#a3d977">75 Strategic Frameworks</text>
<path d="M140 498 L188 498 M212 498 L260 498" stroke="#a3d977" stroke-width="1" stroke-opacity="0.6"/>
<rect x="196" y="494" width="8" height="8" transform="rotate(45 200 498)" fill="none" stroke="#a3d977" stroke-width="1" stroke-opacity="0.8"/>
<text x="200" y="532" text-anchor="middle" font-family="Georgia,serif" font-size="17" letter-spacing="1.5" fill="#f5f0e6">MAYUR N KOIKAR</text>
</svg>