<svg xmlns="http://www.w3.org/2000/svg" viewBox="0 0 400 600">
<defs>
<linearGradient id="g" x1="0" y1="0" x2="1" y2="1">
<stop offset="0" stop-color="#2a323a"/><stop offset="0.55" stop-color="#101820"/><stop offset="1" stop-color="#081018"/></linearGradient>
<pattern id="tex" width="6" height="6" patternUnits="userSpaceOnUse">
<rect width="6" height="6" fill="none"/><circle cx="1" cy="1" r="0.55" fill="#ffffff" fill-opacity="0.035"/></pattern>
</defs>
<rect width="400" height="600" fill="url(#g)"/>
<rect width="400" height="600" fill="url(#tex)"/>
<g stroke="#7fd1c8" stroke-opacity="0.16" stroke-width="1"><line x1="80" y1="120" x2="190" y2="95"/><line x1="190" y1="95" x2="320" y2="130"/><line x1="80" y1="120" x2="120" y2="210"/><line x1="190" y1="95" x2="260" y2="190"/><line x1="320" y1="130" x2="340" y2="240"/><line x1="120" y1="210" x2="260" y2="190"/><line x1="260" y1="190" x2="340" y2="240"/><line x1="120" y1="210" x2="70" y2="300"/><line x1="260" y1="190" x2="200" y2="280"/><line x1="340" y1="240" x2="310" y2="330"/><line x1="70" y1="300" x2="200" y2="280"/><line x1="200" y1="280" x2="310" y2="330"/><line x1="190" y1="95" x2="200" y2="280"/><line x1="320" y1="130" x2="260" y2="190"/></g><g fill="#7fd1c8" fill-opacity="0.28"><circle cx="80" cy="120" r="3.5"/><circle cx="190" cy="95" r="3.5"/><circle cx="320" cy="130" r="3.5"/><circle cx="120" cy="210" r="3.5"/><circle cx="260" cy="190" r="3.5"/><circle cx="340" cy="240" r="3.5"/><circle cx="70" cy="300" r="3.5"/><circle cx="200" cy="280" r="3.5"/><circle cx="310" cy="330" r="3.5"/></g>
<ellipse cx="200" cy="250" rx="230" ry="200" fill="#7fd1c8" fill-opacity="0.07"/>
<rect x="16" y="16" width="368" height="568" fill="none" stroke="#7fd1c8" stroke-opacity="0.5" stroke-width="1.5"/>
<rect x="22" y="22" width="356" height="556" fill="none" stroke="#7fd1c8" stroke-opacity="0.18" stroke-width="0.75"/>
<text x="200" y="58" text-anchor="middle" font-family="Georgia,serif" font-size="11" letter-spacing="2.2" fill="#7fd1c8">THE HR MASTERY SERIES</text>
<path d="M120 74 L192 74 M208 74 L280 74" stroke="#7fd1c8" stroke-width="1" stroke-opacity="0.6"/>
<circle cx="200" cy="74" r="2.2" fill="#7fd1c8" fill-opacity="0.8"/>
<text x="200" y="206" text-anchor="middle" font-family="Georgia,serif" font-weight="bold" font-size="34" fill="#f5f0e6" style="text-shadow:0 2px 8px rgba(0,0,0,.4)">THE</text>
<text x="200" y="250" text-anchor="middle" font-family="Georgia,serif" font-weight="bold" font-size="34" fill="#f5f0e6" style="text-shadow:0 2px 8px rgba(0,0,0,.4)">ENTERPRISE</text>
<text x="200" y="294" text-anchor="middle" font-family="Georgia,serif" font-weight="bold" font-size="34" fill="#f5f0e6" style="text-shadow:0 2px 8px rgba(0,0,0,.4)">MIND</text>
<text x="200" y="368" text-anchor="middle" font-family="Georgia,serif" font-style="italic" font-size="13.5" fill="#7fd1c8">The Complete Operating System</text>
<text x="200" y="388" text-anchor="middle" font-family="Georgia,serif" font-style="italic" font-size="13.5" fill="#7fd1c8">for the World-Class CHRO</text>
<path d="M140 498 L188 498 M212 498 L260 498" stroke="#7fd1c8" stroke-width="1" stroke-opacity="0.6"/>
<rect x="196" y="494" width="8" height="8" transform="rotate(45 200 498)" fill="none" stroke="#7fd1c8" stroke-width="1" stroke-opacity="0.8"/>
<text x="200" y="532" text-anchor="middle" font-family="Georgia,serif" font-size="17" letter-spacing="1.5" fill="#f5f0e6">MAYUR N KOIKAR</text>
</svg>