<svg xmlns="http://www.w3.org/2000/svg" viewBox="0 0 400 600">
<defs>
<linearGradient id="g" x1="0" y1="0" x2="1" y2="1">
<stop offset="0" stop-color="#2e3b45"/><stop offset="0.55" stop-color="#14212b"/><stop offset="1" stop-color="#0c1923"/></linearGradient>
<pattern id="tex" width="6" height="6" patternUnits="userSpaceOnUse">
<rect width="6" height="6" fill="none"/><circle cx="1" cy="1" r="0.55" fill="#ffffff" fill-opacity="0.035"/></pattern>
</defs>
<rect width="400" height="600" fill="url(#g)"/>
<rect width="400" height="600" fill="url(#tex)"/>
<g stroke="#d97b4f" stroke-opacity="0.16" fill="none" stroke-width="2">
<line x1="200" y1="90" x2="200" y2="150"/><line x1="110" y1="115" x2="290" y2="115"/>
<path d="M85 115 L110 165 L135 165 Z" transform="translate(0,-8)"/><path d="M265 115 L290 165 L315 165 Z" transform="translate(0,-8)"/>
<path d="M85 157 A25 12 0 0 0 135 157" /><path d="M265 157 A25 12 0 0 0 315 157"/></g>
<ellipse cx="200" cy="250" rx="230" ry="200" fill="#d97b4f" fill-opacity="0.07"/>
<rect x="16" y="16" width="368" height="568" fill="none" stroke="#d97b4f" stroke-opacity="0.5" stroke-width="1.5"/>
<rect x="22" y="22" width="356" height="556" fill="none" stroke="#d97b4f" stroke-opacity="0.18" stroke-width="0.75"/>
<text x="200" y="58" text-anchor="middle" font-family="Georgia,serif" font-size="11" letter-spacing="2.2" fill="#d97b4f">THE HR MASTERY SERIES</text>
<path d="M120 74 L192 74 M208 74 L280 74" stroke="#d97b4f" stroke-width="1" stroke-opacity="0.6"/>
<circle cx="200" cy="74" r="2.2" fill="#d97b4f" fill-opacity="0.8"/>
<text x="200" y="206" text-anchor="middle" font-family="Georgia,serif" font-weight="bold" font-size="34" fill="#f5f0e6" style="text-shadow:0 2px 8px rgba(0,0,0,.4)">THE EMPLOYEE</text>
<text x="200" y="250" text-anchor="middle" font-family="Georgia,serif" font-weight="bold" font-size="34" fill="#f5f0e6" style="text-shadow:0 2px 8px rgba(0,0,0,.4)">RELATIONS</text>
<text x="200" y="294" text-anchor="middle" font-family="Georgia,serif" font-weight="bold" font-size="34" fill="#f5f0e6" style="text-shadow:0 2px 8px rgba(0,0,0,.4)">PLAYBOOK</text>
<text x="200" y="368" text-anchor="middle" font-family="Georgia,serif" font-style="italic" font-size="13.5" fill="#d97b4f">The Complete Practitioner&#x27;s Guide to</text>
<text x="200" y="388" text-anchor="middle" font-family="Georgia,serif" font-style="italic" font-size="13.5" fill="#d97b4f">Every ER Process, Case, and Challenge</text>
<path d="M140 498 L188 498 M212 498 L260 498" stroke="#d97b4f" stroke-width="1" stroke-opacity="0.6"/>
<rect x="196" y="494" width="8" height="8" transform="rotate(45 200 498)" fill="none" stroke="#d97b4f" stroke-width="1" stroke-opacity="0.8"/>
<text x="200" y="532" text-anchor="middle" font-family="Georgia,serif" font-size="17" letter-spacing="1.5" fill="#f5f0e6">MAYUR N KOIKAR</text>
</svg>
