<svg xmlns="http://www.w3.org/2000/svg" viewBox="0 0 400 600">
<defs>
<linearGradient id="g" x1="0" y1="0" x2="1" y2="1">
<stop offset="0" stop-color="#303030"/><stop offset="0.55" stop-color="#161616"/><stop offset="1" stop-color="#0e0e0e"/></linearGradient>
<pattern id="tex" width="6" height="6" patternUnits="userSpaceOnUse">
<rect width="6" height="6" fill="none"/><circle cx="1" cy="1" r="0.55" fill="#ffffff" fill-opacity="0.035"/></pattern>
</defs>
<rect width="400" height="600" fill="url(#g)"/>
<rect width="400" height="600" fill="url(#tex)"/>
<g stroke="#e05c5c" fill="none">
<circle cx="200" cy="300" r="160" stroke-opacity="0.10" stroke-width="2"/>
<circle cx="200" cy="300" r="115" stroke-opacity="0.13" stroke-width="2"/>
<circle cx="200" cy="300" r="70" stroke-opacity="0.16" stroke-width="2"/>
<line x1="200" y1="115" x2="200" y2="180" stroke-opacity="0.2" stroke-width="2"/>
<line x1="200" y1="420" x2="200" y2="485" stroke-opacity="0.2" stroke-width="2"/>
<line x1="15" y1="300" x2="80" y2="300" stroke-opacity="0.2" stroke-width="2"/>
<line x1="320" y1="300" x2="385" y2="300" stroke-opacity="0.2" stroke-width="2"/></g>
<ellipse cx="200" cy="250" rx="230" ry="200" fill="#e05c5c" fill-opacity="0.07"/>
<rect x="16" y="16" width="368" height="568" fill="none" stroke="#e05c5c" stroke-opacity="0.5" stroke-width="1.5"/>
<rect x="22" y="22" width="356" height="556" fill="none" stroke="#e05c5c" stroke-opacity="0.18" stroke-width="0.75"/>
<text x="200" y="58" text-anchor="middle" font-family="Georgia,serif" font-size="11" letter-spacing="2.2" fill="#e05c5c">THE HR MASTERY SERIES</text>
<path d="M120 74 L192 74 M208 74 L280 74" stroke="#e05c5c" stroke-width="1" stroke-opacity="0.6"/>
<circle cx="200" cy="74" r="2.2" fill="#e05c5c" fill-opacity="0.8"/>
<text x="200" y="206" text-anchor="middle" font-family="Georgia,serif" font-weight="bold" font-size="34" fill="#f5f0e6" style="text-shadow:0 2px 8px rgba(0,0,0,.4)">THE M&amp;A</text>
<text x="200" y="250" text-anchor="middle" font-family="Georgia,serif" font-weight="bold" font-size="34" fill="#f5f0e6" style="text-shadow:0 2px 8px rgba(0,0,0,.4)">TALENT</text>
<text x="200" y="294" text-anchor="middle" font-family="Georgia,serif" font-weight="bold" font-size="34" fill="#f5f0e6" style="text-shadow:0 2px 8px rgba(0,0,0,.4)">KILL ZONE</text>
<text x="200" y="368" text-anchor="middle" font-family="Georgia,serif" font-style="italic" font-size="13.5" fill="#e05c5c">The HR Playbook for Protecting Value</text>
<text x="200" y="388" text-anchor="middle" font-family="Georgia,serif" font-style="italic" font-size="13.5" fill="#e05c5c">from Due Diligence to Day 100</text>
<path d="M140 498 L188 498 M212 498 L260 498" stroke="#e05c5c" stroke-width="1" stroke-opacity="0.6"/>
<rect x="196" y="494" width="8" height="8" transform="rotate(45 200 498)" fill="none" stroke="#e05c5c" stroke-width="1" stroke-opacity="0.8"/>
<text x="200" y="532" text-anchor="middle" font-family="Georgia,serif" font-size="17" letter-spacing="1.5" fill="#f5f0e6">MAYUR N KOIKAR</text>
</svg>
