<svg xmlns="http://www.w3.org/2000/svg" viewBox="0 0 400 600">
<defs>
<linearGradient id="g" x1="0" y1="0" x2="1" y2="1">
<stop offset="0" stop-color="#343c52"/><stop offset="0.55" stop-color="#1a2238"/><stop offset="1" stop-color="#121a30"/></linearGradient>
<pattern id="tex" width="6" height="6" patternUnits="userSpaceOnUse">
<rect width="6" height="6" fill="none"/><circle cx="1" cy="1" r="0.55" fill="#ffffff" fill-opacity="0.035"/></pattern>
</defs>
<rect width="400" height="600" fill="url(#g)"/>
<rect width="400" height="600" fill="url(#tex)"/>
<g stroke="#e0b84c" fill="none">
<circle cx="200" cy="300" r="150" stroke-opacity="0.10" stroke-width="22"/>
<circle cx="200" cy="300" r="110" stroke-opacity="0.12" stroke-width="10"/>
<circle cx="200" cy="300" r="180" stroke-opacity="0.08" stroke-width="6"/></g>
<ellipse cx="200" cy="250" rx="230" ry="200" fill="#e0b84c" fill-opacity="0.07"/>
<rect x="16" y="16" width="368" height="568" fill="none" stroke="#e0b84c" stroke-opacity="0.5" stroke-width="1.5"/>
<rect x="22" y="22" width="356" height="556" fill="none" stroke="#e0b84c" stroke-opacity="0.18" stroke-width="0.75"/>
<text x="200" y="58" text-anchor="middle" font-family="Georgia,serif" font-size="11" letter-spacing="2.2" fill="#e0b84c">THE HR MASTERY SERIES</text>
<path d="M120 74 L192 74 M208 74 L280 74" stroke="#e0b84c" stroke-width="1" stroke-opacity="0.6"/>
<circle cx="200" cy="74" r="2.2" fill="#e0b84c" fill-opacity="0.8"/>
<text x="200" y="228" text-anchor="middle" font-family="Georgia,serif" font-weight="bold" font-size="34" fill="#f5f0e6" style="text-shadow:0 2px 8px rgba(0,0,0,.4)">PAY WITH</text>
<text x="200" y="272" text-anchor="middle" font-family="Georgia,serif" font-weight="bold" font-size="34" fill="#f5f0e6" style="text-shadow:0 2px 8px rgba(0,0,0,.4)">PURPOSE</text>
<text x="200" y="346" text-anchor="middle" font-family="Georgia,serif" font-style="italic" font-size="13.5" fill="#e0b84c">The Koikar Total Rewards</text>
<text x="200" y="366" text-anchor="middle" font-family="Georgia,serif" font-style="italic" font-size="13.5" fill="#e0b84c">Framework</text>
<path d="M140 498 L188 498 M212 498 L260 498" stroke="#e0b84c" stroke-width="1" stroke-opacity="0.6"/>
<rect x="196" y="494" width="8" height="8" transform="rotate(45 200 498)" fill="none" stroke="#e0b84c" stroke-width="1" stroke-opacity="0.8"/>
<text x="200" y="532" text-anchor="middle" font-family="Georgia,serif" font-size="17" letter-spacing="1.5" fill="#f5f0e6">MAYUR N KOIKAR</text>
</svg>
