<svg xmlns="http://www.w3.org/2000/svg" viewBox="0 0 400 600">
<defs>
<linearGradient id="g" x1="0" y1="0" x2="1" y2="1">
<stop offset="0" stop-color="#273544"/><stop offset="0.55" stop-color="#0d1b2a"/><stop offset="1" stop-color="#051322"/></linearGradient>
<pattern id="tex" width="6" height="6" patternUnits="userSpaceOnUse">
<rect width="6" height="6" fill="none"/><circle cx="1" cy="1" r="0.55" fill="#ffffff" fill-opacity="0.035"/></pattern>
</defs>
<rect width="400" height="600" fill="url(#g)"/>
<rect width="400" height="600" fill="url(#tex)"/>
<g stroke="#c9a227" stroke-opacity="0.16" fill="none" stroke-width="1">
<path d="M60 470 L60 380 L120 380 L120 420 L200 420 L200 340 L280 340 L280 400 L340 400 L340 470" />
<path d="M80 380 L80 330 L140 330" /><path d="M240 340 L240 290 L300 290" />
<circle cx="120" cy="380" r="4"/><circle cx="200" cy="420" r="4"/><circle cx="280" cy="340" r="4"/>
<rect x="150" y="440" width="100" height="30"/><line x1="150" y1="455" x2="250" y2="455"/></g>
<ellipse cx="200" cy="250" rx="230" ry="200" fill="#c9a227" fill-opacity="0.07"/>
<rect x="16" y="16" width="368" height="568" fill="none" stroke="#c9a227" stroke-opacity="0.5" stroke-width="1.5"/>
<rect x="22" y="22" width="356" height="556" fill="none" stroke="#c9a227" stroke-opacity="0.18" stroke-width="0.75"/>
<text x="200" y="58" text-anchor="middle" font-family="Georgia,serif" font-size="11" letter-spacing="2.2" fill="#c9a227">THE HR MASTERY SERIES</text>
<path d="M120 74 L192 74 M208 74 L280 74" stroke="#c9a227" stroke-width="1" stroke-opacity="0.6"/>
<circle cx="200" cy="74" r="2.2" fill="#c9a227" fill-opacity="0.8"/>
<text x="200" y="228" text-anchor="middle" font-family="Georgia,serif" font-weight="bold" font-size="34" fill="#f5f0e6" style="text-shadow:0 2px 8px rgba(0,0,0,.4)">THE PEOPLE</text>
<text x="200" y="272" text-anchor="middle" font-family="Georgia,serif" font-weight="bold" font-size="34" fill="#f5f0e6" style="text-shadow:0 2px 8px rgba(0,0,0,.4)">ARCHITECT</text>
<text x="200" y="346" text-anchor="middle" font-family="Georgia,serif" font-style="italic" font-size="13.5" fill="#c9a227">The Complete CHRO Playbook:</text>
<text x="200" y="366" text-anchor="middle" font-family="Georgia,serif" font-style="italic" font-size="13.5" fill="#c9a227">From HR Leader to Business Architect</text>
<path d="M140 498 L188 498 M212 498 L260 498" stroke="#c9a227" stroke-width="1" stroke-opacity="0.6"/>
<rect x="196" y="494" width="8" height="8" transform="rotate(45 200 498)" fill="none" stroke="#c9a227" stroke-width="1" stroke-opacity="0.8"/>
<text x="200" y="532" text-anchor="middle" font-family="Georgia,serif" font-size="17" letter-spacing="1.5" fill="#f5f0e6">MAYUR N KOIKAR</text>
</svg>
