<svg xmlns="http://www.w3.org/2000/svg" viewBox="0 0 400 600">
<defs>
<linearGradient id="g" x1="0" y1="0" x2="1" y2="1">
<stop offset="0" stop-color="#293848"/><stop offset="0.55" stop-color="#0f1e2e"/><stop offset="1" stop-color="#071626"/></linearGradient>
<pattern id="tex" width="6" height="6" patternUnits="userSpaceOnUse">
<rect width="6" height="6" fill="none"/><circle cx="1" cy="1" r="0.55" fill="#ffffff" fill-opacity="0.035"/></pattern>
</defs>
<rect width="400" height="600" fill="url(#g)"/>
<rect width="400" height="600" fill="url(#tex)"/>
<g fill="#9fc5e8"><rect x="58" y="330" width="24" height="16" rx="2" fill-opacity="0.10"/><rect x="94" y="330" width="24" height="16" rx="2" fill-opacity="0.07"/><rect x="130" y="330" width="24" height="16" rx="2" fill-opacity="0.15"/><rect x="166" y="330" width="24" height="16" rx="2" fill-opacity="0.06"/><rect x="202" y="330" width="24" height="16" rx="2" fill-opacity="0.14"/><rect x="238" y="330" width="24" height="16" rx="2" fill-opacity="0.11"/><rect x="274" y="330" width="24" height="16" rx="2" fill-opacity="0.06"/><rect x="310" y="330" width="24" height="16" rx="2" fill-opacity="0.13"/><rect x="58" y="356" width="24" height="16" rx="2" fill-opacity="0.06"/><rect x="94" y="356" width="24" height="16" rx="2" fill-opacity="0.12"/><rect x="130" y="356" width="24" height="16" rx="2" fill-opacity="0.06"/><rect x="166" y="356" width="24" height="16" rx="2" fill-opacity="0.06"/><rect x="202" y="356" width="24" height="16" rx="2" fill-opacity="0.12"/><rect x="238" y="356" width="24" height="16" rx="2" fill-opacity="0.18"/><rect x="274" y="356" width="24" height="16" rx="2" fill-opacity="0.07"/><rect x="310" y="356" width="24" height="16" rx="2" fill-opacity="0.09"/><rect x="58" y="382" width="24" height="16" rx="2" fill-opacity="0.15"/><rect x="94" y="382" width="24" height="16" rx="2" fill-opacity="0.20"/><rect x="130" y="382" width="24" height="16" rx="2" fill-opacity="0.14"/><rect x="166" y="382" width="24" height="16" rx="2" fill-opacity="0.11"/><rect x="202" y="382" width="24" height="16" rx="2" fill-opacity="0.21"/><rect x="238" y="382" width="24" height="16" rx="2" fill-opacity="0.06"/><rect x="274" y="382" width="24" height="16" rx="2" fill-opacity="0.19"/><rect x="310" y="382" width="24" height="16" rx="2" fill-opacity="0.10"/><rect x="58" y="408" width="24" height="16" rx="2" fill-opacity="0.07"/><rect x="94" y="408" width="24" height="16" rx="2" fill-opacity="0.07"/><rect x="130" y="408" width="24" height="16" rx="2" fill-opacity="0.10"/><rect x="166" y="408" width="24" height="16" rx="2" fill-opacity="0.18"/><rect x="202" y="408" width="24" height="16" rx="2" fill-opacity="0.08"/><rect x="238" y="408" width="24" height="16" rx="2" fill-opacity="0.14"/><rect x="274" y="408" width="24" height="16" rx="2" fill-opacity="0.15"/><rect x="310" y="408" width="24" height="16" rx="2" fill-opacity="0.11"/><rect x="58" y="434" width="24" height="16" rx="2" fill-opacity="0.14"/><rect x="94" y="434" width="24" height="16" rx="2" fill-opacity="0.06"/><rect x="130" y="434" width="24" height="16" rx="2" fill-opacity="0.06"/><rect x="166" y="434" width="24" height="16" rx="2" fill-opacity="0.08"/><rect x="202" y="434" width="24" height="16" rx="2" fill-opacity="0.16"/><rect x="238" y="434" width="24" height="16" rx="2" fill-opacity="0.12"/><rect x="274" y="434" width="24" height="16" rx="2" fill-opacity="0.10"/><rect x="310" y="434" width="24" height="16" rx="2" fill-opacity="0.14"/><rect x="58" y="460" width="24" height="16" rx="2" fill-opacity="0.12"/><rect x="94" y="460" width="24" height="16" rx="2" fill-opacity="0.10"/><rect x="130" y="460" width="24" height="16" rx="2" fill-opacity="0.18"/><rect x="166" y="460" width="24" height="16" rx="2" fill-opacity="0.16"/><rect x="202" y="460" width="24" height="16" rx="2" fill-opacity="0.09"/><rect x="238" y="460" width="24" height="16" rx="2" fill-opacity="0.14"/><rect x="274" y="460" width="24" height="16" rx="2" fill-opacity="0.13"/><rect x="310" y="460" width="24" height="16" rx="2" fill-opacity="0.19"/></g>
<ellipse cx="200" cy="250" rx="230" ry="200" fill="#9fc5e8" fill-opacity="0.07"/>
<rect x="16" y="16" width="368" height="568" fill="none" stroke="#9fc5e8" stroke-opacity="0.5" stroke-width="1.5"/>
<rect x="22" y="22" width="356" height="556" fill="none" stroke="#9fc5e8" stroke-opacity="0.18" stroke-width="0.75"/>
<text x="200" y="58" text-anchor="middle" font-family="Georgia,serif" font-size="11" letter-spacing="2.2" fill="#9fc5e8">THE HR MASTERY SERIES</text>
<path d="M120 74 L192 74 M208 74 L280 74" stroke="#9fc5e8" stroke-width="1" stroke-opacity="0.6"/>
<circle cx="200" cy="74" r="2.2" fill="#9fc5e8" fill-opacity="0.8"/>
<text x="200" y="228" text-anchor="middle" font-family="Georgia,serif" font-weight="bold" font-size="34" fill="#f5f0e6" style="text-shadow:0 2px 8px rgba(0,0,0,.4)">101 STRATEGIC</text>
<text x="200" y="272" text-anchor="middle" font-family="Georgia,serif" font-weight="bold" font-size="34" fill="#f5f0e6" style="text-shadow:0 2px 8px rgba(0,0,0,.4)">HR FRAMEWORKS</text>
<text x="200" y="346" text-anchor="middle" font-family="Georgia,serif" font-style="italic" font-size="13.5" fill="#9fc5e8">Theories, and Tools — An Executive Guide</text>
<text x="200" y="366" text-anchor="middle" font-family="Georgia,serif" font-style="italic" font-size="13.5" fill="#9fc5e8">for the Top 1% HR Professional</text>
<path d="M140 498 L188 498 M212 498 L260 498" stroke="#9fc5e8" stroke-width="1" stroke-opacity="0.6"/>
<rect x="196" y="494" width="8" height="8" transform="rotate(45 200 498)" fill="none" stroke="#9fc5e8" stroke-width="1" stroke-opacity="0.8"/>
<text x="200" y="532" text-anchor="middle" font-family="Georgia,serif" font-size="17" letter-spacing="1.5" fill="#f5f0e6">MAYUR N KOIKAR</text>
</svg>
